Coordinates
version=1
nRows=24
nColumns=24
inDegrees=yes

Units are S.I. units (second, meters, Newtons, ...)
Angles are in degrees.

endheader
time	pelvis_tilt	pelvis_list	pelvis_rotation	pelvis_tx	pelvis_ty	pelvis_tz	hip_flexion_r	hip_adduction_r	hip_rotation_r	knee_angle_r	ankle_angle_r	subtalar_angle_r	mtp_angle_r	hip_flexion_l	hip_adduction_l	hip_rotation_l	knee_angle_l	ankle_angle_l	subtalar_angle_l	mtp_angle_l	lumbar_extension	lumbar_bending	lumbar_rotation
      1.21616667	     -5.17645400	     -1.57309003	     -9.68113094	      0.03106022	      0.86765070	      0.32017594	    -15.43733791	      5.02370945	      5.69974932	    -10.31581037	     19.09348164	     11.77434288	     10.62808411	     34.29415846	     -5.72740969	     -9.83076684	     -6.16792336	      3.88291391	     -0.96482016	      2.63203475	     -2.20445010	      3.85216167	     13.58820086
      1.22033333	     -5.31796306	     -1.50188697	     -9.73429556	      0.03673765	      0.86641534	      0.32010711	    -15.43341476	      4.90121662	      5.73217419	    -10.78874133	     19.02858546	     11.81579624	     10.83196499	     34.57657663	     -5.67065249	     -9.72819425	     -6.85163471	      3.71350201	     -1.08056466	      2.66553817	     -2.04097908	      3.69004327	     13.61707659
      1.22450000	     -5.39336594	     -1.40937753	     -9.76870834	      0.04250992	      0.86532162	      0.31999246	    -15.49710328	      4.74117977	      5.69128428	    -11.25394880	     18.86902515	     11.84891723	     14.40254624	     34.77059129	     -5.57033688	     -9.66802889	     -7.53641536	      3.47160351	     -1.25163199	      3.47502247	     -1.93094019	      3.49528895	     13.64545694
      1.22866667	     -5.49912633	     -1.31895427	     -9.78654106	      0.04831822	      0.86423667	      0.31986464	    -15.52429243	      4.59794681	      5.68221969	    -11.73618108	     18.69039818	     11.84948735	     14.43538094	     34.99713718	     -5.46666416	     -9.59579051	     -8.25290344	      3.19805201	     -1.39851006	      3.49165292	     -1.78257079	      3.29932773	     13.65258321
      1.23283333	     -5.61169826	     -1.21686153	     -9.79563301	      0.05416459	      0.86318837	      0.31970407	    -15.52156094	      4.44480889	      5.65563997	    -12.26215186	     18.50829427	     11.86212041	     14.50626248	     35.22186729	     -5.34230735	     -9.51551915	     -8.97651818	      2.86676310	     -1.60350298	      3.52321802	     -1.62193566	      3.09289853	     13.65014438
      1.23700000	     -5.72718920	     -1.11401093	     -9.78484048	      0.06002859	      0.86217775	      0.31947199	    -15.49094626	      4.29147825	      5.59024070	    -12.83502048	     18.33676585	     11.92065009	     14.71725939	     35.44935538	     -5.19607540	     -9.38783843	     -9.71597405	      2.47594970	     -1.94324307	      3.61810846	     -1.46145543	      2.90134002	     13.63418796
      1.24116667	     -5.84510105	     -0.99309775	     -9.76211146	      0.06595543	      0.86122863	      0.31923933	    -15.44919148	      4.12542131	      5.52826521	    -13.41685883	     18.08076708	     11.92527857	     14.99252488	     35.66494067	     -5.02508636	     -9.27242925	    -10.44451943	      2.02263290	     -2.28038984	      3.73614950	     -1.28487942	      2.67348072	     13.60079919
      1.24533333	     -5.94797027	     -0.85291810	     -9.72474593	      0.07196348	      0.86037600	      0.31898458	    -15.42131626	      3.93824349	      5.45888231	    -13.99183311	     17.69345903	     11.89759112	     15.14369810	     35.85361948	     -4.82780219	     -9.20087627	    -11.16996923	      1.54840675	     -2.50670328	      3.79615135	     -1.11942016	      2.40046329	     13.57006233
      1.24950000	     -6.08659235	     -0.73213929	     -9.66377950	      0.07793041	      0.85949248	      0.31864042	    -15.31177371	      3.78215921	      5.35834562	    -14.66090866	     17.42868683	     11.91898571	     15.55041634	     36.10119457	     -4.62503791	     -9.01808590	    -11.93954096	      1.02957761	     -3.04490306	      3.95363532	     -0.91992090	      2.19130645	     13.49413957
      1.25366667	     -6.19258849	     -0.57147476	     -9.59604978	      0.08400921	      0.85875894	      0.31831880	    -15.23947625	      3.57933842	      5.26040863	    -15.30238587	     16.93211455	     11.89232734	     15.79049117	     36.28862484	     -4.38686321	     -8.93139278	    -12.67522583	      0.50833991	     -3.30420347	      4.04105172	     -0.74783697	      1.88787851	     13.44454375
      1.25783333	     -6.28862734	     -0.41708262	     -9.50251025	      0.09008828	      0.85806675	      0.31789035	    -15.13575815	      3.37701634	      5.06795230	    -16.01563824	     16.43364799	     11.88091923	     20.82435061	     36.47919171	     -4.12403321	     -8.77700178	    -13.44083923	     -0.04104996	     -3.84049752	      5.90485842	     -0.59728505	      1.62741203	     13.37663789
      1.26200000	     -6.40893705	     -0.26321206	     -9.40507650	      0.09621261	      0.85742384	      0.31750089	    -15.00898606	      3.19270155	      4.96986774	    -16.72683740	     15.87479931	     11.81358255	     20.85794585	     36.70455299	     -3.87890694	     -8.68277046	    -14.24794069	     -0.52627542	     -4.13795718	      5.91836253	     -0.40607220	      1.34432926	     13.29689194
      1.26616667	     -6.54011291	     -0.10386965	     -9.28809126	      0.10234036	      0.85681146	      0.31704933	    -14.83049517	      3.00500854	      4.82721898	    -17.51131982	     15.33324312	     11.78332955	     20.95453447	     36.94542233	     -3.60838459	     -8.52170397	    -15.06602221	     -0.99650905	     -4.57079326	      5.94376674	     -0.20144582	      1.06574783	     13.19190094
      1.27033333	     -6.61664230	      0.08523387	     -9.13976446	      0.10852168	      0.85633605	      0.31648663	    -14.68066758	      2.76951785	      4.58147621	    -18.34303587	     14.79748223	     11.85746169	     21.50860048	     37.10563855	     -3.25867348	     -8.26136922	    -15.83706550	     -1.47552403	     -5.26671958	      6.07486305	     -0.07051803	      0.75320269	     13.03947815
      1.27450000	     -6.74073889	      0.25467745	     -9.00563081	      0.11472059	      0.85586168	      0.31601273	    -14.46636347	      2.57466374	      4.43864559	    -19.19448168	     14.11971355	     11.78313788	     21.65940294	     37.35515588	     -2.98447337	     -8.17083844	    -16.72091767	     -1.82625663	     -5.47809489	      6.10274669	      0.12187138	      0.45270979	     12.97435073
      1.27866667	     -6.85890700	      0.43195021	     -8.84803234	      0.12093359	      0.85544764	      0.31546112	    -14.22284459	      2.36785991	      4.24190672	    -20.10428901	     13.43133309	     11.76797924	     21.89098711	     37.59468149	     -2.67258504	     -7.99449580	    -17.60236320	     -2.13042769	     -5.86468458	      6.13710568	      0.31313347	      0.14450143	     12.86023951
      1.28283333	     -6.96445403	      0.61327724	     -8.67367298	      0.12713474	      0.85508408	      0.31483713	    -13.94260997	      2.14956271	      3.97993705	    -21.11019598	     12.80925868	     11.79719019	     22.43143867	     37.82228606	     -2.33219363	     -7.75531609	    -18.48602309	     -2.46048306	     -6.42474281	      6.20165171	      0.47727668	     -0.13058542	     12.68361005
      1.28700000	     -6.98739163	      0.83135748	     -8.49637961	      0.13347556	      0.85494292	      0.31422956	    -13.76190616	      1.87028274	      3.69839824	    -22.05080546	     11.89069352	     11.76036722	     27.81426874	     37.93805302	     -1.95919089	     -7.61377741	    -19.35666460	     -2.60350885	     -6.72623706	      6.72675712	      0.55408074	     -0.50849061	     12.61447081
      1.29116667	     -7.03974641	      1.02791947	     -8.30519363	      0.13980897	      0.85479489	      0.31361830	    -13.52492374	      1.62961319	      3.44619223	    -23.05155521	     11.02626169	     11.75519192	     27.84542201	     38.10423362	     -1.60846513	     -7.45210794	    -20.28227858	     -2.65811180	     -6.96294161	      6.72777034	      0.66954397	     -0.85656931	     12.52658156
      1.29533333	     -7.08328147	      1.23580575	     -8.10679151	      0.14615646	      0.85470837	      0.31295990	    -13.25615011	      1.36703036	      3.15596373	    -24.12004535	     10.16306002	     11.78067105	     27.91840610	     38.25170078	     -1.23467047	     -7.26679269	    -21.19913580	     -2.66681204	     -7.24310408	      6.72356925	      0.77253019	     -1.20750738	     12.41863641
      1.29950000	     -7.13037935	      1.45147005	     -7.90053512	      0.15247930	      0.85464810	      0.31223687	    -12.92569295	      1.08221736	      2.80016660	    -25.29086021	      9.34348694	     11.88122669	     28.13869592	     38.39527868	     -0.83710746	     -7.04123972	    -22.09698252	     -2.69616575	     -7.62580119	      6.69899949	      0.87682291	     -1.53426812	     12.24847300
      1.30366667	     -7.10557010	      1.67754689	     -7.69281637	      0.15890414	      0.85476925	      0.31156769	    -12.69039987	      0.78090950	      2.48074794	    -26.40471302	      8.35550872	     11.90386305	     28.25243602	     38.44359907	     -0.43595658	     -6.88221197	    -22.99488853	     -2.52494666	     -7.79491989	      6.68697830	      0.89943289	     -1.93164738	     12.19131794
      1.30783333	     -7.08263253	      1.91947196	     -7.48814728	      0.16530331	      0.85493403	      0.31080743	    -12.38986682	      0.43235190	      2.07459600	    -27.61164578	      7.31627722	     12.02113417	     31.77527614	     38.46885490	     -0.00168535	     -6.68611486	    -23.83306272	     -2.45120333	     -8.13814613	      6.08817206	      0.92263013	     -2.29609267	     12.05666758
      1.31200000	     -7.04688437	      2.14284831	     -7.25817838	      0.17173259	      0.85513040	      0.31008219	    -12.10064501	      0.12053823	      1.69539809	    -28.83273440	      6.32109874	     12.03440024	     31.78800310	     38.48699258	      0.41393690	     -6.50266781	    -24.71256466	     -2.13746243	     -8.22309892	      6.08597129	      0.93621121	     -2.68126800	     11.99833227
